<?xml version="1.0" encoding="utf-8"?>
<!-- Generator: Adobe Illustrator 24.3.0, SVG Export Plug-In . SVG Version: 6.00 Build 0)  -->
<svg version="1.1" id="Camada_1" xmlns="http://www.w3.org/2000/svg" xmlns:xlink="http://www.w3.org/1999/xlink" x="0px" y="0px"
	 viewBox="0 0 500 500" style="enable-background:new 0 0 500 500;" xml:space="preserve">
<style type="text/css">
	.st0{fill:#B71C1C;}
	.st1{fill:#D9D4CC;}
</style>
<path class="st0" d="M491.8,186.3C463.6,79.1,366,0,250,0S36.4,79.1,8.2,186.3C2.8,206.6,0,228,0,250s2.8,43.4,8.2,63.7
	C31,400.6,99.4,469,186.3,491.8c20.3,5.4,41.7,8.2,63.7,8.2s43.4-2.8,63.7-8.2C400.6,469,469,400.6,491.8,313.7
	c5.4-20.3,8.2-41.7,8.2-63.7S497.2,206.6,491.8,186.3z M250,51.5c87.3,0,161.5,56.4,188,134.8H61.9C88.5,107.9,162.6,51.5,250,51.5z
	 M186.3,438.1c-58.4-19.8-104.6-66-124.4-124.3h7.9c64.3,0,116.4,52.1,116.4,116.4V438.1z M165,301.2c-14.1,0-27-5.7-36.2-15
	c-9.3-9.3-15-22.1-15-36.2c0-28.3,22.9-51.2,51.2-51.2h170c14.2,0,27,5.7,36.2,15c9.3,9.3,15,22.1,15,36.2
	c0,28.3-22.9,51.2-51.2,51.2H165z M313.7,438.1v-7.9c0-64.3,52.1-116.4,116.4-116.4h7.9C418.3,372.1,372.1,418.3,313.7,438.1z"/>
<g>
	<path class="st1" d="M166.7,269.8c-3.2,0-5.4-1.5-6.8-4.6l-9.3-22.4c-0.9-2.1-0.9-3.9-0.1-5.4s2.5-2.3,5-2.3c1.4,0,2.6,0.3,3.4,1
		c0.9,0.7,1.7,1.9,2.5,3.9l5.8,15.2l6.2-16.5c0.9-2.4,2.5-3.5,4.9-3.5c1.3,0,2.4,0.3,3.1,0.9s1.4,1.5,1.8,2.7l6.3,16.8l6-15.9
		c0.6-1.7,1.4-2.8,2.4-3.5s2.1-0.9,3.2-0.9c2.3,0,3.8,0.8,4.5,2.4s0.6,3.4-0.3,5.4l-9.2,22.3c-1.3,3.1-3.5,4.7-6.7,4.7
		c-3.2,0-5.5-1.6-6.8-4.7l-4.9-12.4l-4.7,12.3C172.1,268.2,169.9,269.8,166.7,269.8z"/>
	<path class="st1" d="M238.6,269.8c-3.2,0-5.4-1.5-6.8-4.6l-9.3-22.4c-0.9-2.1-0.9-3.9-0.1-5.4s2.5-2.3,5-2.3c1.4,0,2.6,0.3,3.4,1
		s1.7,1.9,2.5,3.9l5.8,15.2l6.2-16.5c0.9-2.4,2.5-3.5,4.9-3.5c1.3,0,2.4,0.3,3.1,0.9s1.4,1.5,1.8,2.7l6.3,16.8l6-15.9
		c0.6-1.7,1.5-2.8,2.5-3.5s2.1-0.9,3.2-0.9c2.3,0,3.8,0.8,4.5,2.4s0.6,3.4-0.3,5.4l-9.2,22.3c-1.3,3.1-3.5,4.7-6.7,4.7
		c-3.2,0-5.5-1.6-6.8-4.7l-4.9-12.4l-4.7,12.3C243.9,268.2,241.7,269.8,238.6,269.8z"/>
	<path class="st1" d="M310.4,269.8c-3.2,0-5.4-1.5-6.8-4.6l-9.3-22.4c-0.9-2.1-0.9-3.9-0.1-5.4s2.5-2.3,5-2.3c1.4,0,2.6,0.3,3.4,1
		c0.9,0.7,1.7,1.9,2.5,3.9l5.8,15.2l6.2-16.5c0.9-2.4,2.5-3.5,4.9-3.5c1.3,0,2.4,0.3,3.1,0.9c0.8,0.6,1.4,1.5,1.8,2.7l6.3,16.8
		l6-15.9c0.6-1.7,1.5-2.8,2.5-3.5s2.1-0.9,3.2-0.9c2.3,0,3.8,0.8,4.5,2.4s0.6,3.4-0.3,5.4l-9.2,22.3c-1.3,3.1-3.5,4.7-6.7,4.7
		c-3.2,0-5.5-1.6-6.8-4.7l-4.9-12.4L317,265C315.7,268.2,313.5,269.8,310.4,269.8z"/>
</g>
</svg>
