<?xml version="1.0" encoding="utf-8"?>
<!-- Generator: Adobe Illustrator 24.3.0, SVG Export Plug-In . SVG Version: 6.00 Build 0)  -->
<svg version="1.1" id="Camada_1" xmlns="http://www.w3.org/2000/svg" xmlns:xlink="http://www.w3.org/1999/xlink" x="0px" y="0px"
	 viewBox="0 0 500 500" style="enable-background:new 0 0 500 500;" xml:space="preserve">
<style type="text/css">
	.st0{fill:#B71C1C;}
</style>
<g>
	<path class="st0" d="M491.79,186.27C463.63,79.07,366.03,0,250,0S36.37,79.07,8.21,186.27C2.84,206.62,0,227.99,0,250
		c0,22.01,2.84,43.38,8.21,63.73c22.82,86.86,91.2,155.24,178.06,178.06c20.34,5.37,41.72,8.21,63.73,8.21s43.38-2.84,63.73-8.21
		c86.86-22.82,155.25-91.2,178.06-178.06c5.37-20.34,8.21-41.72,8.21-63.73C500,227.99,497.16,206.62,491.79,186.27z M250,51.47
		c87.33,0,161.47,56.42,188.04,134.8H61.94C88.5,107.89,162.65,51.47,250,51.47z M186.27,438.06
		c-58.38-19.78-104.56-65.96-124.36-124.34h7.94c64.29,0,116.42,52.13,116.42,116.42V438.06z M165,301.23
		c-14.14,0-26.96-5.74-36.23-15c-9.26-9.26-15-22.08-15-36.23c0-28.28,22.92-51.23,51.23-51.23h169.98c14.17,0,26.96,5.74,36.23,15
		c9.26,9.26,15,22.08,15,36.23c0,28.28-22.92,51.23-51.23,51.23H165z M313.73,438.06v-7.92c0-64.29,52.13-116.42,116.42-116.42h7.92
		C418.28,372.11,372.11,418.28,313.73,438.06z"/>
	<g>
		<path d="M166.73,269.78c-3.18,0-5.43-1.54-6.75-4.63l-9.27-22.42c-0.91-2.09-0.93-3.9-0.07-5.42s2.52-2.28,4.97-2.28
			c1.41,0,2.56,0.33,3.44,0.99c0.89,0.66,1.71,1.94,2.49,3.85l5.79,15.2l6.2-16.49c0.91-2.36,2.54-3.54,4.91-3.54
			c1.32,0,2.36,0.3,3.13,0.89c0.77,0.59,1.39,1.48,1.84,2.66l6.27,16.83l6-15.95c0.64-1.68,1.45-2.84,2.45-3.48
			c1-0.64,2.07-0.95,3.2-0.95c2.32,0,3.82,0.78,4.5,2.35c0.68,1.57,0.59,3.37-0.27,5.42l-9.2,22.28c-1.32,3.14-3.54,4.7-6.68,4.7
			c-3.23,0-5.48-1.57-6.75-4.7l-4.91-12.4l-4.7,12.27C172.07,268.17,169.87,269.78,166.73,269.78z"/>
		<path d="M238.56,269.78c-3.18,0-5.43-1.54-6.75-4.63l-9.27-22.42c-0.91-2.09-0.93-3.9-0.07-5.42s2.52-2.28,4.97-2.28
			c1.41,0,2.56,0.33,3.44,0.99s1.71,1.94,2.49,3.85l5.79,15.2l6.2-16.49c0.91-2.36,2.54-3.54,4.91-3.54c1.32,0,2.36,0.3,3.13,0.89
			c0.77,0.59,1.39,1.48,1.84,2.66l6.27,16.83l6-15.95c0.64-1.68,1.45-2.84,2.45-3.48c1-0.64,2.07-0.95,3.2-0.95
			c2.32,0,3.82,0.78,4.5,2.35c0.68,1.57,0.59,3.37-0.27,5.42l-9.2,22.28c-1.32,3.14-3.54,4.7-6.68,4.7c-3.23,0-5.48-1.57-6.75-4.7
			l-4.91-12.4l-4.7,12.27C243.9,268.17,241.7,269.78,238.56,269.78z"/>
		<path d="M310.39,269.78c-3.18,0-5.43-1.54-6.75-4.63l-9.27-22.42c-0.91-2.09-0.93-3.9-0.07-5.42c0.86-1.52,2.52-2.28,4.97-2.28
			c1.41,0,2.56,0.33,3.44,0.99c0.89,0.66,1.71,1.94,2.49,3.85l5.79,15.2l6.2-16.49c0.91-2.36,2.54-3.54,4.91-3.54
			c1.32,0,2.36,0.3,3.13,0.89c0.77,0.59,1.39,1.48,1.84,2.66l6.27,16.83l6-15.95c0.64-1.68,1.45-2.84,2.45-3.48
			c1-0.64,2.07-0.95,3.2-0.95c2.32,0,3.82,0.78,4.5,2.35c0.68,1.57,0.59,3.37-0.27,5.42l-9.2,22.28c-1.32,3.14-3.54,4.7-6.68,4.7
			c-3.23,0-5.48-1.57-6.75-4.7l-4.91-12.4l-4.7,12.27C315.73,268.17,313.53,269.78,310.39,269.78z"/>
	</g>
</g>
</svg>
