<?xml version="1.0" encoding="utf-8"?>
<!-- Generator: Adobe Illustrator 24.3.0, SVG Export Plug-In . SVG Version: 6.00 Build 0)  -->
<svg version="1.1" id="Camada_1" xmlns="http://www.w3.org/2000/svg" xmlns:xlink="http://www.w3.org/1999/xlink" x="0px" y="0px"
	 viewBox="0 0 1269 179" style="enable-background:new 0 0 1269 179;" xml:space="preserve">
<style type="text/css">
	.st0{fill:#B71C1C;}
</style>
<g>
	<g>
		<g>
			<path d="M85.73,96.58c-1.14,0-1.95-0.55-2.42-1.66l-3.33-8.03c-0.33-0.75-0.33-1.39-0.02-1.94c0.31-0.54,0.91-0.82,1.79-0.82
				c0.51,0,0.92,0.12,1.24,0.35c0.32,0.24,0.62,0.7,0.89,1.38l2.08,5.44l2.23-5.9c0.33-0.85,0.91-1.27,1.76-1.27
				c0.47,0,0.85,0.11,1.13,0.32c0.28,0.21,0.5,0.53,0.66,0.95l2.25,6.03l2.16-5.71c0.23-0.6,0.52-1.02,0.88-1.24
				c0.36-0.23,0.74-0.34,1.15-0.34c0.83,0,1.37,0.28,1.62,0.84c0.24,0.56,0.21,1.21-0.1,1.94l-3.31,7.98
				c-0.47,1.12-1.27,1.68-2.4,1.68c-1.16,0-1.97-0.56-2.42-1.68l-1.76-4.44l-1.69,4.39C87.64,96,86.85,96.58,85.73,96.58z"/>
			<path d="M111.54,96.58c-1.14,0-1.95-0.55-2.42-1.66l-3.33-8.03c-0.33-0.75-0.33-1.39-0.02-1.94c0.31-0.54,0.91-0.82,1.79-0.82
				c0.51,0,0.92,0.12,1.24,0.35c0.32,0.24,0.62,0.7,0.89,1.38l2.08,5.44l2.23-5.9c0.33-0.85,0.91-1.27,1.76-1.27
				c0.47,0,0.85,0.11,1.13,0.32c0.28,0.21,0.5,0.53,0.66,0.95l2.25,6.03l2.16-5.71c0.23-0.6,0.52-1.02,0.88-1.24
				c0.36-0.23,0.74-0.34,1.15-0.34c0.83,0,1.37,0.28,1.62,0.84c0.24,0.56,0.21,1.21-0.1,1.94l-3.31,7.98
				c-0.47,1.12-1.27,1.68-2.4,1.68c-1.16,0-1.97-0.56-2.42-1.68l-1.76-4.44l-1.69,4.39C113.46,96,112.66,96.58,111.54,96.58z"/>
			<path d="M59.92,96.58c-1.14,0-1.95-0.55-2.42-1.66l-3.33-8.03c-0.33-0.75-0.33-1.39-0.02-1.94c0.31-0.54,0.91-0.82,1.79-0.82
				c0.51,0,0.92,0.12,1.24,0.35c0.32,0.24,0.62,0.7,0.89,1.38l2.08,5.44l2.23-5.9c0.33-0.85,0.91-1.27,1.76-1.27
				c0.47,0,0.85,0.11,1.13,0.32c0.28,0.21,0.5,0.53,0.66,0.95l2.25,6.03l2.16-5.71c0.23-0.6,0.52-1.02,0.88-1.24
				c0.36-0.23,0.74-0.34,1.15-0.34c0.83,0,1.37,0.28,1.62,0.84c0.24,0.56,0.21,1.21-0.1,1.94l-3.31,7.98
				c-0.47,1.12-1.27,1.68-2.4,1.68c-1.16,0-1.97-0.56-2.42-1.68l-1.76-4.44l-1.69,4.39C61.83,96,61.04,96.58,59.92,96.58z"/>
		</g>
		<path class="st0" d="M176.72,66.69C166.6,28.31,131.53,0,89.84,0S13.07,28.31,2.95,66.69C1.02,73.97,0,81.62,0,89.5
			c0,7.88,1.02,15.53,2.95,22.81c8.2,31.1,32.77,55.58,63.99,63.75c7.31,1.92,14.99,2.94,22.9,2.94s15.59-1.02,22.9-2.94
			c31.21-8.17,55.79-32.65,63.99-63.75c1.93-7.28,2.95-14.93,2.95-22.81C179.67,81.62,178.65,73.97,176.72,66.69z M89.84,18.43
			c31.38,0,58.02,20.2,67.57,48.26H22.26C31.8,38.63,58.45,18.43,89.84,18.43z M66.94,156.83c-20.98-7.08-37.57-23.61-44.69-44.51
			h2.85c23.1,0,41.84,18.66,41.84,41.68V156.83z M59.29,107.84c-5.08,0-9.69-2.05-13.02-5.37c-3.33-3.32-5.39-7.91-5.39-12.97
			c0-10.13,8.24-18.34,18.41-18.34h61.08c5.09,0,9.69,2.05,13.02,5.37c3.33,3.32,5.39,7.91,5.39,12.97
			c0,10.13-8.24,18.34-18.41,18.34H59.29z M112.74,156.83v-2.83c0-23.02,18.73-41.68,41.84-41.68h2.84
			C150.31,133.21,133.72,149.75,112.74,156.83z"/>
	</g>
	<g>
		<path d="M248.32,144.94c-6.93,0-11.82-3.35-14.69-10.05l-20.18-48.64c-1.98-4.53-2.03-8.45-0.15-11.75
			c1.88-3.3,5.49-4.95,10.83-4.95c3.07,0,5.57,0.72,7.49,2.14c1.93,1.43,3.73,4.21,5.42,8.35l12.61,32.97l13.5-35.78
			c1.98-5.12,5.54-7.69,10.68-7.69c2.87,0,5.14,0.64,6.83,1.92c1.68,1.28,3.02,3.2,4.01,5.77l13.65,36.52l13.06-34.6
			c1.38-3.65,3.17-6.16,5.34-7.54c2.18-1.38,4.5-2.07,6.97-2.07c5.05,0,8.31,1.7,9.79,5.1c1.48,3.4,1.28,7.32-0.59,11.75
			l-20.03,48.34c-2.87,6.8-7.72,10.2-14.54,10.2c-7.03,0-11.92-3.4-14.69-10.2l-10.68-26.91l-10.24,26.61
			C259.94,141.44,255.15,144.94,248.32,144.94z"/>
		<path d="M384.7,145.24c-8.9,0-16.6-1.55-23.08-4.66c-6.48-3.1-11.45-7.51-14.91-13.23c-3.46-5.71-5.19-12.47-5.19-20.25
			c0-7.39,1.66-13.95,4.97-19.66c3.31-5.71,7.87-10.18,13.65-13.38c5.79-3.2,12.39-4.8,19.81-4.8c7.32,0,13.68,1.53,19.07,4.58
			c5.39,3.06,9.55,7.42,12.47,13.08c2.92,5.67,4.38,12.3,4.38,19.88c0,3.84-2.28,5.77-6.83,5.77h-42.29
			c0.89,4.73,2.87,8.13,5.94,10.2c3.07,2.07,7.32,3.1,12.76,3.1c2.08,0,4.55-0.25,7.42-0.74c2.87-0.49,5.59-1.28,8.16-2.37
			c3.17-1.18,5.84-1.21,8.01-0.07c2.17,1.13,3.64,2.86,4.38,5.17c0.74,2.32,0.64,4.68-0.3,7.1c-0.94,2.42-2.8,4.26-5.57,5.54
			c-3.46,1.68-7.15,2.88-11.06,3.62C392.59,144.87,388.66,145.24,384.7,145.24z M381.14,86.25c-3.96,0-7.2,1.18-9.72,3.55
			c-2.52,2.37-4.13,5.82-4.82,10.35h27.6c-0.3-4.63-1.56-8.11-3.78-10.42C388.19,87.41,385.09,86.25,381.14,86.25z"/>
		<path d="M476.85,145.24c-4.85,0-9.27-1.03-13.28-3.1c-4.01-2.07-7-4.83-8.98-8.28c-0.79,7.39-5.05,11.09-12.76,11.09
			c-8.71,0-13.06-4.44-13.06-13.31V51.36c0-8.87,4.35-13.31,13.06-13.31c4.25,0,7.54,1.13,9.87,3.4c2.32,2.27,3.49,5.57,3.49,9.91
			v28.24c2.08-3.15,5.07-5.67,8.98-7.54c3.91-1.87,8.14-2.81,12.69-2.81c6.33,0,11.89,1.53,16.7,4.58c4.8,3.06,8.53,7.42,11.2,13.08
			c2.67,5.67,4.01,12.44,4.01,20.33c0,7.79-1.36,14.54-4.08,20.25c-2.72,5.72-6.48,10.1-11.28,13.16
			C488.6,143.71,483.09,145.24,476.85,145.24z M468.54,125.87c3.96,0,7.22-1.48,9.8-4.44c2.57-2.96,3.86-7.69,3.86-14.19
			c0-6.6-1.29-11.36-3.86-14.27c-2.57-2.91-5.84-4.36-9.8-4.36c-4.06,0-7.37,1.46-9.94,4.36c-2.57,2.91-3.86,7.66-3.86,14.27
			c0,6.51,1.28,11.24,3.86,14.19C461.17,124.39,464.49,125.87,468.54,125.87z"/>
		<path d="M535.62,144.94c-4.26,0-7.49-1.13-9.72-3.4c-2.23-2.27-3.34-5.57-3.34-9.91V82.7c0-8.77,4.3-13.16,12.91-13.16
			c7.81,0,12.07,3.75,12.76,11.24c2.17-3.55,5.17-6.36,8.98-8.43c3.81-2.07,8.24-3.1,13.28-3.1c4.95,0,9.22,1.09,12.84,3.25
			c3.61,2.17,6.36,5.52,8.24,10.05c2.47-4.24,5.84-7.51,10.09-9.83c4.25-2.31,8.95-3.47,14.1-3.47c8.51,0,14.81,2.54,18.92,7.61
			c4.1,5.08,6.16,12.99,6.16,23.73v31.05c0,4.34-1.16,7.64-3.49,9.91c-2.33,2.27-5.62,3.4-9.87,3.4c-4.15,0-7.37-1.13-9.65-3.4
			c-2.28-2.27-3.41-5.57-3.41-9.91v-30.31c0-4.24-0.64-7.29-1.93-9.17c-1.29-1.87-3.41-2.81-6.38-2.81c-3.66,0-6.45,1.28-8.38,3.84
			c-1.93,2.56-2.89,6.21-2.89,10.94v27.5c0,4.34-1.14,7.64-3.41,9.91c-2.28,2.27-5.54,3.4-9.79,3.4c-4.25,0-7.52-1.13-9.79-3.4
			c-2.28-2.27-3.41-5.57-3.41-9.91v-30.31c0-4.24-0.65-7.29-1.93-9.17c-1.29-1.87-3.41-2.81-6.38-2.81c-3.56,0-6.31,1.28-8.24,3.84
			c-1.93,2.56-2.89,6.21-2.89,10.94v27.5C548.98,140.51,544.52,144.94,535.62,144.94z"/>
		<path d="M694.55,145.24c-8.11,0-15.19-1.53-21.22-4.58c-6.04-3.05-10.74-7.44-14.1-13.16c-3.36-5.71-5.05-12.47-5.05-20.25
			c0-7.88,1.68-14.66,5.05-20.33c3.36-5.67,8.06-10.03,14.1-13.08c6.03-3.05,13.11-4.58,21.22-4.58c8.11,0,15.19,1.53,21.22,4.58
			c6.03,3.06,10.71,7.42,14.02,13.08c3.31,5.67,4.97,12.44,4.97,20.33c0,7.79-1.66,14.54-4.97,20.25
			c-3.32,5.72-7.99,10.1-14.02,13.16C709.74,143.71,702.67,145.24,694.55,145.24z M694.55,125.87c3.96,0,7.22-1.48,9.79-4.44
			c2.57-2.96,3.86-7.69,3.86-14.19c0-6.6-1.29-11.36-3.86-14.27c-2.57-2.91-5.84-4.36-9.79-4.36c-4.06,0-7.37,1.46-9.94,4.36
			c-2.57,2.91-3.86,7.66-3.86,14.27c0,6.51,1.28,11.24,3.86,14.19C687.18,124.39,690.5,125.87,694.55,125.87z"/>
		<path d="M796.5,145.24c-4.85,0-9.28-1.03-13.28-3.1c-4.01-2.07-7-4.83-8.98-8.28c-0.79,7.39-5.05,11.09-12.76,11.09
			c-8.71,0-13.06-4.44-13.06-13.31V51.36c0-8.87,4.35-13.31,13.06-13.31c4.25,0,7.54,1.13,9.87,3.4c2.32,2.27,3.49,5.57,3.49,9.91
			v28.24c2.08-3.15,5.07-5.67,8.98-7.54c3.91-1.87,8.14-2.81,12.69-2.81c6.33,0,11.89,1.53,16.69,4.58
			c4.8,3.06,8.53,7.42,11.2,13.08c2.67,5.67,4.01,12.44,4.01,20.33c0,7.79-1.36,14.54-4.08,20.25c-2.72,5.72-6.48,10.1-11.28,13.16
			C808.25,143.71,802.74,145.24,796.5,145.24z M788.19,125.87c3.96,0,7.22-1.48,9.79-4.44c2.57-2.96,3.86-7.69,3.86-14.19
			c0-6.6-1.29-11.36-3.86-14.27c-2.57-2.91-5.84-4.36-9.79-4.36c-4.06,0-7.37,1.46-9.94,4.36c-2.57,2.91-3.86,7.66-3.86,14.27
			c0,6.51,1.28,11.24,3.86,14.19C780.82,124.39,784.14,125.87,788.19,125.87z"/>
		<path d="M854.97,59.04c-4.65,0-8.24-1.08-10.76-3.25c-2.52-2.17-3.78-5.32-3.78-9.46c0-4.04,1.26-7.14,3.78-9.31
			c2.52-2.17,6.11-3.25,10.76-3.25c9.79,0,14.69,4.19,14.69,12.57c0,4.14-1.26,7.3-3.78,9.46
			C863.36,57.96,859.72,59.04,854.97,59.04z M854.97,144.94c-4.26,0-7.49-1.23-9.72-3.7c-2.23-2.46-3.34-6.01-3.34-10.64V83.88
			c0-4.63,1.11-8.18,3.34-10.64c2.23-2.46,5.47-3.7,9.72-3.7c4.25,0,7.54,1.23,9.87,3.7c2.32,2.47,3.49,6.01,3.49,10.64v46.72
			c0,4.63-1.14,8.18-3.41,10.64C862.64,143.71,859.32,144.94,854.97,144.94z"/>
		<path d="M912.85,145.24c-9.6,0-16.62-2.54-21.07-7.61c-4.45-5.08-6.68-12.74-6.68-22.99V51.36c0-8.87,4.35-13.31,13.06-13.31
			c4.25,0,7.54,1.13,9.87,3.4c2.32,2.27,3.49,5.57,3.49,9.91v62.39c0,3.65,0.72,6.31,2.15,7.98c1.43,1.68,3.29,2.51,5.57,2.51
			c0.69,0,1.41-0.07,2.15-0.22s1.56-0.27,2.45-0.37c1.78,0,3.07,0.64,3.86,1.92c0.79,1.28,1.19,3.89,1.19,7.84
			c0,3.45-0.69,6.04-2.08,7.76c-1.39,1.73-3.51,2.83-6.38,3.33c-0.79,0.2-1.93,0.37-3.41,0.52S914.13,145.24,912.85,145.24z"/>
		<path d="M951.28,59.04c-4.65,0-8.24-1.08-10.76-3.25c-2.52-2.17-3.78-5.32-3.78-9.46c0-4.04,1.26-7.14,3.78-9.31
			c2.52-2.17,6.11-3.25,10.76-3.25c9.79,0,14.69,4.19,14.69,12.57c0,4.14-1.26,7.3-3.78,9.46
			C959.66,57.96,956.03,59.04,951.28,59.04z M951.28,144.94c-4.26,0-7.49-1.23-9.72-3.7c-2.23-2.46-3.34-6.01-3.34-10.64V83.88
			c0-4.63,1.11-8.18,3.34-10.64c2.23-2.46,5.47-3.7,9.72-3.7c4.25,0,7.54,1.23,9.87,3.7c2.32,2.47,3.49,6.01,3.49,10.64v46.72
			c0,4.63-1.14,8.18-3.41,10.64C958.95,143.71,955.63,144.94,951.28,144.94z"/>
		<path d="M1010.49,145.24c-4.45,0-8.9-0.35-13.36-1.03c-4.45-0.69-8.51-1.82-12.17-3.4c-3.07-1.18-5.07-2.91-6.01-5.17
			c-0.94-2.27-1.04-4.53-0.3-6.8c0.74-2.27,2.1-3.99,4.08-5.17c1.98-1.18,4.35-1.28,7.12-0.3c4.06,1.48,7.77,2.54,11.13,3.18
			c3.36,0.64,6.58,0.96,9.65,0.96c3.66,0,6.28-0.52,7.87-1.55c1.58-1.03,2.37-2.39,2.37-4.07c0-1.48-0.52-2.59-1.56-3.33
			c-1.04-0.74-2.5-1.31-4.38-1.7l-16.47-2.66c-6.14-0.98-10.88-3.2-14.25-6.65c-3.36-3.45-5.05-7.93-5.05-13.45
			c0-5.12,1.43-9.54,4.3-13.23c2.87-3.7,6.88-6.55,12.02-8.57c5.14-2.02,11.03-3.03,17.66-3.03c4.45,0,8.51,0.35,12.17,1.04
			c3.66,0.69,7.22,1.83,10.68,3.4c2.67,1.09,4.38,2.76,5.12,5.03c0.74,2.27,0.69,4.51-0.15,6.73c-0.84,2.22-2.28,3.89-4.3,5.03
			c-2.03,1.13-4.48,1.16-7.35,0.07c-3.26-1.28-6.16-2.22-8.68-2.81c-2.52-0.59-4.87-0.89-7.05-0.89c-4.06,0-6.93,0.57-8.61,1.7
			c-1.68,1.13-2.52,2.49-2.52,4.07c0,2.66,1.83,4.29,5.49,4.88l16.47,2.81c6.33,0.99,11.2,3.13,14.62,6.43
			c3.41,3.3,5.12,7.76,5.12,13.38c0,7.98-3.07,14.17-9.2,18.55C1028.84,143.04,1020.68,145.24,1010.49,145.24z"/>
		<path d="M1094.04,145.24c-11.08,0-19.29-2.56-24.63-7.69c-5.34-5.12-8.01-12.86-8.01-23.21v-24.1h-5.05
			c-6.63,0-9.94-3.25-9.94-9.76c0-6.41,3.31-9.61,9.94-9.61h5.05v-9.17c0-4.34,1.14-7.64,3.41-9.91c2.27-2.27,5.54-3.4,9.79-3.4
			c8.8,0,13.21,4.44,13.21,13.31v9.17h12.17c6.73,0,10.09,3.2,10.09,9.61c0,6.51-3.36,9.76-10.09,9.76h-12.17v23.21
			c0,7.1,3.61,10.64,10.83,10.64c1.38,0,2.72-0.15,4.01-0.44c1.29-0.3,2.47-0.44,3.56-0.44c1.58-0.1,2.87,0.37,3.86,1.4
			c0.99,1.03,1.48,3.38,1.48,7.02c0,2.96-0.45,5.45-1.34,7.47c-0.89,2.02-2.47,3.47-4.75,4.36c-1.39,0.49-3.26,0.91-5.64,1.26
			C1097.45,145.06,1095.52,145.24,1094.04,145.24z"/>
		<path d="M1145.83,145.24c-5.64,0-10.61-1.03-14.91-3.1c-4.3-2.07-7.67-4.9-10.09-8.5c-2.43-3.6-3.64-7.71-3.64-12.35
			c0-5.22,1.38-9.39,4.16-12.49c2.77-3.1,7.22-5.32,13.36-6.65c6.13-1.33,14.29-2,24.49-2h5.64v-2.07c0-3.55-0.92-6.06-2.75-7.54
			c-1.83-1.48-4.97-2.22-9.42-2.22c-2.47,0-5.17,0.27-8.09,0.81c-2.92,0.54-6.21,1.5-9.87,2.88c-3.26,1.18-5.99,1.13-8.16-0.15
			c-2.18-1.28-3.59-3.13-4.23-5.54c-0.65-2.41-0.4-4.83,0.74-7.24c1.14-2.41,3.34-4.21,6.6-5.4c4.75-1.67,9.13-2.83,13.13-3.47
			c4.01-0.64,7.69-0.96,11.06-0.96c12.17,0,21.2,2.61,27.08,7.84c5.88,5.23,8.83,13.45,8.83,24.69v29.86
			c0,8.87-4.06,13.31-12.17,13.31c-7.72,0-11.82-3.94-12.32-11.83c-1.39,3.75-3.76,6.7-7.12,8.87
			C1154.78,144.15,1150.68,145.24,1145.83,145.24z M1151.77,128.09c3.66,0,6.75-1.18,9.28-3.55s3.78-5.47,3.78-9.31v-2.66h-5.64
			c-5.84,0-10.12,0.62-12.84,1.85c-2.72,1.23-4.08,3.18-4.08,5.84c0,2.27,0.82,4.14,2.45,5.62
			C1146.35,127.35,1148.7,128.09,1151.77,128.09z"/>
		<path d="M1235.31,145.24c-4.45,0-8.9-0.35-13.36-1.03c-4.45-0.69-8.51-1.82-12.17-3.4c-3.07-1.18-5.07-2.91-6.01-5.17
			c-0.94-2.27-1.04-4.53-0.3-6.8c0.74-2.27,2.1-3.99,4.08-5.17c1.98-1.18,4.35-1.28,7.12-0.3c4.06,1.48,7.77,2.54,11.13,3.18
			c3.36,0.64,6.58,0.96,9.65,0.96c3.66,0,6.28-0.52,7.87-1.55c1.58-1.03,2.37-2.39,2.37-4.07c0-1.48-0.52-2.59-1.56-3.33
			c-1.04-0.74-2.5-1.31-4.38-1.7l-16.47-2.66c-6.14-0.98-10.88-3.2-14.25-6.65c-3.36-3.45-5.05-7.93-5.05-13.45
			c0-5.12,1.43-9.54,4.3-13.23c2.87-3.7,6.88-6.55,12.02-8.57c5.14-2.02,11.03-3.03,17.66-3.03c4.45,0,8.51,0.35,12.17,1.04
			c3.66,0.69,7.22,1.83,10.68,3.4c2.67,1.09,4.38,2.76,5.12,5.03c0.74,2.27,0.69,4.51-0.15,6.73c-0.84,2.22-2.28,3.89-4.3,5.03
			c-2.03,1.13-4.48,1.16-7.35,0.07c-3.26-1.28-6.16-2.22-8.68-2.81c-2.52-0.59-4.87-0.89-7.05-0.89c-4.06,0-6.93,0.57-8.61,1.7
			c-1.68,1.13-2.52,2.49-2.52,4.07c0,2.66,1.83,4.29,5.49,4.88l16.47,2.81c6.33,0.99,11.2,3.13,14.62,6.43
			c3.41,3.3,5.12,7.76,5.12,13.38c0,7.98-3.07,14.17-9.2,18.55C1253.66,143.04,1245.5,145.24,1235.31,145.24z"/>
	</g>
</g>
</svg>
