<?xml version="1.0" encoding="utf-8"?>
<!-- Generator: Adobe Illustrator 24.3.0, SVG Export Plug-In . SVG Version: 6.00 Build 0)  -->
<svg version="1.1" id="Camada_1" xmlns="http://www.w3.org/2000/svg" xmlns:xlink="http://www.w3.org/1999/xlink" x="0px" y="0px"
	 viewBox="0 0 1269 179" style="enable-background:new 0 0 1269 179;" xml:space="preserve">
<style type="text/css">
	.st0{fill:#D9D4CC;}
	.st1{fill:#B71C1C;}
</style>
<g>
	<path class="st0" d="M85.8,96.6c-1.1,0-1.9-0.6-2.4-1.7l-3.3-8.1c-0.3-0.8-0.3-1.4,0-1.9c0.3-0.6,0.9-0.8,1.8-0.8
		c0.5,0,0.9,0.1,1.2,0.4s0.6,0.7,0.9,1.4l2.1,5.5l2.2-5.9c0.3-0.8,0.9-1.3,1.8-1.3c0.5,0,0.8,0.1,1.1,0.3s0.5,0.5,0.7,1l2.3,6.1
		l2.2-5.7c0.2-0.6,0.5-1,0.9-1.3s0.7-0.3,1.2-0.3c0.8,0,1.4,0.3,1.6,0.8c0.2,0.6,0.2,1.2-0.1,1.9l-3.3,8c-0.5,1.1-1.3,1.7-2.4,1.7
		c-1.2,0-2-0.6-2.4-1.7l-1.8-4.5l-1.7,4.4C87.7,96,86.9,96.6,85.8,96.6z"/>
	<path class="st0" d="M111.6,96.6c-1.1,0-1.9-0.6-2.4-1.7l-3.3-8.1c-0.3-0.8-0.3-1.4,0-1.9c0.3-0.6,0.9-0.8,1.8-0.8
		c0.5,0,0.9,0.1,1.2,0.4s0.6,0.7,0.9,1.4l2.1,5.5l2.2-5.9c0.3-0.8,0.9-1.3,1.8-1.3c0.5,0,0.8,0.1,1.1,0.3s0.5,0.5,0.7,1l2.3,6.1
		l2.2-5.7c0.2-0.6,0.5-1,0.9-1.3s0.7-0.3,1.2-0.3c0.8,0,1.4,0.3,1.6,0.8c0.2,0.6,0.2,1.2-0.1,1.9l-3.3,8c-0.5,1.1-1.3,1.7-2.4,1.7
		c-1.2,0-2-0.6-2.4-1.7l-1.8-4.5l-1.7,4.4C113.5,96,112.7,96.6,111.6,96.6z"/>
	<path class="st0" d="M60,96.6c-1.1,0-2-0.6-2.4-1.7l-3.3-8.1c-0.3-0.8-0.3-1.4,0-1.9c0.3-0.6,0.9-0.8,1.8-0.8
		c0.5,0,0.9,0.1,1.2,0.4c0.3,0.2,0.6,0.7,0.9,1.4l2.1,5.5l2.2-5.9c0.3-0.8,0.9-1.3,1.8-1.3c0.5,0,0.8,0.1,1.1,0.3s0.5,0.5,0.7,1
		l2.3,6.1l2.2-5.7c0.2-0.6,0.5-1,0.9-1.3s0.7-0.3,1.2-0.3c0.8,0,1.4,0.3,1.6,0.8c0.2,0.6,0.2,1.2-0.1,1.9l-3.3,8
		c-0.5,1.1-1.3,1.7-2.4,1.7c-1.2,0-2-0.6-2.4-1.7l-1.8-4.5l-1.7,4.4C61.9,96,61.1,96.6,60,96.6z"/>
</g>
<path class="st1" d="M176.8,66.6C166.7,28.1,131.6-0.3,89.9-0.3S13.2,28.1,3,66.6c-1.9,7.3-3,15-3,22.9s1,15.6,3,22.9
	c8.2,31.2,32.8,55.8,64,64c7.3,1.9,15,2.9,22.9,2.9s15.6-1,22.9-2.9c31.2-8.2,55.8-32.8,64-64c1.9-7.3,2.9-15,2.9-22.9
	C179.7,81.6,178.7,73.9,176.8,66.6z M89.9,18.2c31.4,0,58,20.3,67.6,48.4H22.4C31.9,38.4,58.5,18.2,89.9,18.2z M67,157.1
	c-21-7.1-37.6-23.7-44.7-44.7h2.9c23.1,0,41.8,18.7,41.8,41.8V157.1z M59.4,107.9c-5.1,0-9.7-2.1-13-5.4s-5.4-7.9-5.4-13
	c0-10.2,8.2-18.4,18.4-18.4h61.1c5.1,0,9.7,2.1,13,5.4s5.4,7.9,5.4,13c0,10.2-8.2,18.4-18.4,18.4L59.4,107.9L59.4,107.9z
	 M112.8,157.1v-2.8c0-23.1,18.7-41.8,41.8-41.8h2.8C150.4,133.4,133.8,150,112.8,157.1z"/>
<g>
	<path class="st0" d="M248.4,145.1c-6.9,0-11.8-3.4-14.7-10.1l-20.2-48.8c-2-4.6-2-8.5-0.1-11.8c1.9-3.3,5.5-5,10.8-5
		c3.1,0,5.6,0.7,7.5,2.2c1.9,1.4,3.7,4.2,5.4,8.4l12.6,33.1l13.5-35.9c2-5.1,5.5-7.7,10.7-7.7c2.9,0,5.1,0.6,6.8,1.9s3,3.2,4,5.8
		l13.6,36.7l13.1-34.7c1.4-3.7,3.2-6.2,5.3-7.6c2.2-1.4,4.5-2.1,7-2.1c5,0,8.3,1.7,9.8,5.1s1.3,7.3-0.6,11.8l-20,48.5
		c-2.9,6.8-7.7,10.2-14.5,10.2c-7,0-11.9-3.4-14.7-10.2l-10.7-27l-10.2,26.7C260,141.6,255.2,145.1,248.4,145.1z"/>
	<path class="st0" d="M384.7,145.4c-8.9,0-16.6-1.6-23.1-4.7c-6.5-3.1-11.5-7.5-14.9-13.3c-3.5-5.7-5.2-12.5-5.2-20.3
		c0-7.4,1.6-14,5-19.7c3.3-5.7,7.9-10.2,13.6-13.4c5.8-3.2,12.4-4.8,19.8-4.8c7.3,0,13.7,1.5,19.1,4.6c5.4,3.1,9.5,7.4,12.5,13.1
		c2.9,5.7,4.4,12.3,4.4,20c0,3.9-2.3,5.8-6.8,5.8h-42.3c0.9,4.8,2.9,8.2,5.9,10.2c3.1,2.1,7.3,3.1,12.8,3.1c2.1,0,4.5-0.3,7.4-0.7
		c2.9-0.5,5.6-1.3,8.2-2.4c3.2-1.2,5.8-1.2,8-0.1s3.6,2.9,4.4,5.2c0.7,2.3,0.6,4.7-0.3,7.1c-0.9,2.4-2.8,4.3-5.6,5.6
		c-3.5,1.7-7.1,2.9-11,3.6C392.6,145.1,388.7,145.4,384.7,145.4z M381.2,86.2c-4,0-7.2,1.2-9.7,3.6c-2.5,2.4-4.1,5.8-4.8,10.4h27.6
		c-0.3-4.7-1.6-8.1-3.8-10.5C388.2,87.4,385.1,86.2,381.2,86.2z"/>
	<path class="st0" d="M476.9,145.4c-4.9,0-9.3-1-13.3-3.1s-7-4.9-9-8.3c-0.8,7.4-5,11.1-12.8,11.1c-8.7,0-13.1-4.4-13.1-13.4V51.2
		c0-8.9,4.4-13.3,13.1-13.3c4.3,0,7.5,1.1,9.9,3.4c2.3,2.3,3.5,5.6,3.5,9.9v28.3c2.1-3.2,5.1-5.7,9-7.6s8.1-2.8,12.7-2.8
		c6.3,0,11.9,1.5,16.7,4.6s8.5,7.4,11.2,13.1c2.7,5.7,4,12.5,4,20.4c0,7.8-1.4,14.6-4.1,20.3s-6.5,10.1-11.3,13.2
		C488.6,143.9,483.1,145.4,476.9,145.4z M468.6,126c4,0,7.2-1.5,9.8-4.4c2.6-3,3.9-7.7,3.9-14.2c0-6.6-1.3-11.4-3.9-14.3
		c-2.6-2.9-5.8-4.4-9.8-4.4c-4.1,0-7.4,1.5-9.9,4.4s-3.9,7.7-3.9,14.3c0,6.5,1.3,11.3,3.9,14.2C461.2,124.5,464.5,126,468.6,126z"/>
	<path class="st0" d="M535.6,145.1c-4.3,0-7.5-1.1-9.7-3.4s-3.3-5.6-3.3-9.9V82.7c0-8.8,4.3-13.2,12.9-13.2
		c7.8,0,12.1,3.8,12.8,11.3c2.2-3.6,5.2-6.4,9-8.5s8.2-3.1,13.3-3.1c5,0,9.2,1.1,12.8,3.3c3.6,2.2,6.4,5.5,8.2,10.1
		c2.5-4.3,5.8-7.5,10.1-9.9c4.3-2.3,9-3.5,14.1-3.5c8.5,0,14.8,2.6,18.9,7.6c4.1,5.1,6.2,13,6.2,23.8v31.2c0,4.4-1.2,7.7-3.5,9.9
		s-5.6,3.4-9.9,3.4c-4.2,0-7.4-1.1-9.6-3.4c-2.3-2.3-3.4-5.6-3.4-9.9v-30.4c0-4.3-0.6-7.3-1.9-9.2s-3.4-2.8-6.4-2.8
		c-3.7,0-6.5,1.3-8.4,3.9s-2.9,6.2-2.9,11v27.6c0,4.4-1.1,7.7-3.4,9.9c-2.3,2.3-5.5,3.4-9.8,3.4s-7.5-1.1-9.8-3.4
		c-2.3-2.3-3.4-5.6-3.4-9.9v-30.4c0-4.3-0.6-7.3-1.9-9.2s-3.4-2.8-6.4-2.8c-3.6,0-6.3,1.3-8.2,3.9c-1.9,2.6-2.9,6.2-2.9,11v27.6
		C549,140.7,544.5,145.1,535.6,145.1z"/>
	<path class="st0" d="M694.5,145.4c-8.1,0-15.2-1.5-21.2-4.6c-6-3.1-10.7-7.5-14.1-13.2c-3.4-5.7-5-12.5-5-20.3
		c0-7.9,1.7-14.7,5-20.4s8.1-10.1,14.1-13.1c6-3.1,13.1-4.6,21.2-4.6s15.2,1.5,21.2,4.6c6,3.1,10.7,7.4,14,13.1
		c3.3,5.7,5,12.5,5,20.4c0,7.8-1.7,14.6-5,20.3c-3.3,5.7-8,10.1-14,13.2C709.7,143.9,702.7,145.4,694.5,145.4z M694.5,126
		c4,0,7.2-1.5,9.8-4.4c2.6-3,3.9-7.7,3.9-14.2c0-6.6-1.3-11.4-3.9-14.3s-5.8-4.4-9.8-4.4c-4.1,0-7.4,1.5-9.9,4.4s-3.9,7.7-3.9,14.3
		c0,6.5,1.3,11.3,3.9,14.2C687.2,124.5,690.5,126,694.5,126z"/>
	<path class="st0" d="M796.5,145.4c-4.8,0-9.3-1-13.3-3.1s-7-4.9-9-8.3c-0.8,7.4-5,11.1-12.8,11.1c-8.7,0-13.1-4.4-13.1-13.4V51.2
		c0-8.9,4.3-13.3,13.1-13.3c4.3,0,7.5,1.1,9.9,3.4c2.3,2.3,3.5,5.6,3.5,9.9v28.3c2.1-3.2,5.1-5.7,9-7.6s8.1-2.8,12.7-2.8
		c6.3,0,11.9,1.5,16.7,4.6s8.5,7.4,11.2,13.1c2.7,5.7,4,12.5,4,20.4c0,7.8-1.4,14.6-4.1,20.3c-2.7,5.7-6.5,10.1-11.3,13.2
		C808.2,143.9,802.7,145.4,796.5,145.4z M788.2,126c4,0,7.2-1.5,9.8-4.4c2.6-3,3.9-7.7,3.9-14.2c0-6.6-1.3-11.4-3.9-14.3
		s-5.8-4.4-9.8-4.4c-4.1,0-7.4,1.5-9.9,4.4s-3.9,7.7-3.9,14.3c0,6.5,1.3,11.3,3.9,14.2C780.8,124.5,784.1,126,788.2,126z"/>
	<path class="st0" d="M854.9,58.9c-4.7,0-8.2-1.1-10.8-3.3c-2.5-2.2-3.8-5.3-3.8-9.5c0-4,1.3-7.2,3.8-9.4c2.5-2.2,6.1-3.3,10.8-3.3
		c9.8,0,14.7,4.2,14.7,12.6c0,4.2-1.3,7.3-3.8,9.5C863.3,57.8,859.7,58.9,854.9,58.9z M854.9,145.1c-4.3,0-7.5-1.2-9.7-3.7
		s-3.3-6-3.3-10.7V83.9c0-4.7,1.1-8.2,3.3-10.7c2.2-2.5,5.5-3.7,9.7-3.7c4.3,0,7.5,1.2,9.9,3.7c2.3,2.5,3.5,6,3.5,10.7v46.9
		c0,4.6-1.1,8.2-3.4,10.7C862.6,143.9,859.3,145.1,854.9,145.1z"/>
	<path class="st0" d="M912.8,145.4c-9.6,0-16.6-2.6-21.1-7.6s-6.7-12.8-6.7-23.1V51.2c0-8.9,4.3-13.3,13.1-13.3
		c4.3,0,7.5,1.1,9.9,3.4c2.3,2.3,3.5,5.6,3.5,9.9v62.6c0,3.7,0.7,6.3,2.2,8c1.4,1.7,3.3,2.5,5.6,2.5c0.7,0,1.4-0.1,2.2-0.2
		c0.7-0.2,1.6-0.3,2.5-0.4c1.8,0,3.1,0.6,3.9,1.9c0.8,1.3,1.2,3.9,1.2,7.9c0,3.5-0.7,6.1-2.1,7.8s-3.5,2.8-6.4,3.3
		c-0.8,0.2-1.9,0.4-3.4,0.5S914.1,145.4,912.8,145.4z"/>
	<path class="st0" d="M951.2,58.9c-4.7,0-8.2-1.1-10.8-3.3c-2.5-2.2-3.8-5.3-3.8-9.5c0-4,1.3-7.2,3.8-9.4c2.5-2.2,6.1-3.3,10.8-3.3
		c9.8,0,14.7,4.2,14.7,12.6c0,4.2-1.3,7.3-3.8,9.5C959.6,57.8,956,58.9,951.2,58.9z M951.2,145.1c-4.3,0-7.5-1.2-9.7-3.7
		s-3.3-6-3.3-10.7V83.9c0-4.7,1.1-8.2,3.3-10.7c2.2-2.5,5.5-3.7,9.7-3.7c4.3,0,7.5,1.2,9.9,3.7c2.3,2.5,3.5,6,3.5,10.7v46.9
		c0,4.6-1.1,8.2-3.4,10.7C958.9,143.9,955.6,145.1,951.2,145.1z"/>
	<path class="st0" d="M1010.4,145.4c-4.5,0-8.9-0.4-13.3-1c-4.5-0.7-8.5-1.8-12.2-3.4c-3.1-1.2-5.1-2.9-6-5.2s-1-4.6-0.3-6.8
		c0.7-2.3,2.1-4,4.1-5.2c2-1.2,4.3-1.3,7.1-0.3c4,1.5,7.8,2.6,11.1,3.2c3.4,0.6,6.6,1,9.6,1c3.7,0,6.3-0.5,7.9-1.6
		c1.6-1,2.4-2.4,2.4-4.1c0-1.5-0.5-2.6-1.6-3.3s-2.5-1.3-4.4-1.7l-16.5-2.7c-6.1-1-10.9-3.2-14.2-6.7c-3.4-3.5-5-8-5-13.5
		c0-5.1,1.4-9.6,4.3-13.3s6.9-6.6,12-8.6c5.1-2,11-3,17.7-3c4.5,0,8.5,0.3,12.2,1s7.2,1.8,10.7,3.4c2.7,1.1,4.4,2.8,5.1,5
		c0.7,2.3,0.7,4.5-0.2,6.8c-0.8,2.2-2.3,3.9-4.3,5c-2,1.1-4.5,1.2-7.3,0.1c-3.3-1.3-6.2-2.2-8.7-2.8s-4.9-0.9-7-0.9
		c-4.1,0-6.9,0.6-8.6,1.7s-2.5,2.5-2.5,4.1c0,2.7,1.8,4.3,5.5,4.9l16.5,2.8c6.3,1,11.2,3.1,14.6,6.4c3.4,3.3,5.1,7.8,5.1,13.4
		c0,8-3.1,14.2-9.2,18.6C1028.8,143.2,1020.6,145.4,1010.4,145.4z"/>
	<path class="st0" d="M1094,145.4c-11.1,0-19.3-2.6-24.6-7.7c-5.3-5.1-8-12.9-8-23.3V90.2h-5c-6.6,0-9.9-3.3-9.9-9.8
		c0-6.4,3.3-9.6,9.9-9.6h5v-9.2c0-4.3,1.1-7.7,3.4-9.9c2.3-2.3,5.5-3.4,9.8-3.4c8.8,0,13.2,4.5,13.2,13.4v9.2h12.2
		c6.7,0,10.1,3.2,10.1,9.6c0,6.5-3.4,9.8-10.1,9.8h-12.2v23.3c0,7.1,3.6,10.7,10.8,10.7c1.4,0,2.7-0.2,4-0.4
		c1.3-0.3,2.5-0.4,3.6-0.4c1.6-0.1,2.9,0.4,3.9,1.4s1.5,3.4,1.5,7c0,3-0.4,5.5-1.3,7.5c-0.9,2-2.5,3.5-4.8,4.4
		c-1.4,0.5-3.3,0.9-5.6,1.3C1097.4,145.3,1095.4,145.4,1094,145.4z"/>
	<path class="st0" d="M1145.8,145.4c-5.6,0-10.6-1-14.9-3.1s-7.7-4.9-10.1-8.5c-2.4-3.6-3.6-7.7-3.6-12.4c0-5.2,1.4-9.4,4.2-12.5
		c2.8-3.1,7.2-5.3,13.3-6.7s14.3-2,24.5-2h5.6v-2.1c0-3.6-0.9-6.1-2.8-7.6c-1.8-1.5-5-2.2-9.4-2.2c-2.5,0-5.2,0.3-8.1,0.8
		c-2.9,0.5-6.2,1.5-9.9,2.9c-3.3,1.2-6,1.1-8.2-0.2c-2.2-1.3-3.6-3.1-4.2-5.6s-0.4-4.8,0.7-7.3s3.3-4.2,6.6-5.4
		c4.8-1.7,9.1-2.8,13.1-3.5c4-0.6,7.7-1,11.1-1c12.2,0,21.2,2.6,27.1,7.9c5.9,5.2,8.8,13.5,8.8,24.8v30c0,8.9-4.1,13.4-12.2,13.4
		c-7.7,0-11.8-4-12.3-11.9c-1.4,3.8-3.8,6.7-7.1,8.9C1154.7,144.4,1150.6,145.4,1145.8,145.4z M1151.7,128.2c3.7,0,6.8-1.2,9.3-3.6
		s3.8-5.5,3.8-9.3v-2.7h-5.6c-5.8,0-10.1,0.6-12.8,1.8c-2.7,1.2-4.1,3.2-4.1,5.9c0,2.3,0.8,4.2,2.4,5.6
		C1146.3,127.5,1148.6,128.2,1151.7,128.2z"/>
	<path class="st0" d="M1235.2,145.4c-4.4,0-8.9-0.4-13.3-1c-4.4-0.7-8.5-1.8-12.2-3.4c-3.1-1.2-5.1-2.9-6-5.2
		c-0.9-2.3-1-4.6-0.3-6.8c0.7-2.3,2.1-4,4.1-5.2c2-1.2,4.3-1.3,7.1-0.3c4.1,1.5,7.8,2.6,11.1,3.2c3.4,0.6,6.6,1,9.6,1
		c3.7,0,6.3-0.5,7.9-1.6s2.4-2.4,2.4-4.1c0-1.5-0.5-2.6-1.6-3.3s-2.5-1.3-4.4-1.7l-16.5-2.7c-6.1-1-10.9-3.2-14.2-6.7
		c-3.4-3.5-5-8-5-13.5c0-5.1,1.4-9.6,4.3-13.3s6.9-6.6,12-8.6c5.1-2,11-3,17.7-3c4.4,0,8.5,0.3,12.2,1s7.2,1.8,10.7,3.4
		c2.7,1.1,4.4,2.8,5.1,5c0.7,2.3,0.7,4.5-0.2,6.8c-0.8,2.2-2.3,3.9-4.3,5c-2,1.1-4.5,1.2-7.3,0.1c-3.3-1.3-6.2-2.2-8.7-2.8
		s-4.9-0.9-7.1-0.9c-4.1,0-6.9,0.6-8.6,1.7c-1.7,1.1-2.5,2.5-2.5,4.1c0,2.7,1.8,4.3,5.5,4.9l16.5,2.8c6.3,1,11.2,3.1,14.6,6.4
		c3.4,3.3,5.1,7.8,5.1,13.4c0,8-3.1,14.2-9.2,18.6C1253.6,143.2,1245.4,145.4,1235.2,145.4z"/>
</g>
</svg>
